# Blender 3.4.1
# www.blender.org
mtllib Extrude.mtl
o Cube
v -0.800000 -0.800000 1.000000
v -0.800000 1.000000 0.800000
v -0.800000 -0.800000 -1.000000
v -0.800000 1.000000 -0.800000
v 0.800000 -0.800000 1.000000
v 0.800000 1.000000 0.800000
v 1.000000 -0.800000 -0.800000
v 0.800000 1.000000 -0.800000
v -0.800000 0.800000 1.000000
v -0.800000 0.800000 -1.000000
v 1.000000 0.800000 -0.800000
v 0.800000 0.800000 1.000000
v -1.000000 1.000000 1.000000
v -1.000000 1.000000 -1.000000
v 1.000000 1.000000 -1.000000
v 1.000000 1.000000 1.000000
v -0.600000 1.200000 0.600000
v -0.600000 1.200000 -0.600000
v 0.600000 1.200000 -0.600000
v 0.600000 1.200000 0.600000
v -0.800000 1.200000 0.800000
v -0.800000 1.200000 -0.800000
v 0.800000 1.200000 -0.800000
v 0.800000 1.200000 0.800000
v -0.400000 1.400000 0.400000
v -0.400000 1.400000 -0.400000
v 0.400000 1.400000 -0.400000
v 0.400000 1.400000 0.400000
v -0.600000 1.400000 0.600000
v -0.600000 1.400000 -0.600000
v 0.600000 1.400000 -0.600000
v 0.600000 1.400000 0.600000
v -0.200000 1.600000 0.200000
v -0.200000 1.600000 -0.200000
v 0.200000 1.600000 -0.200000
v 0.200000 1.600000 0.200000
v -0.400000 1.600000 0.400000
v -0.400000 1.600000 -0.400000
v 0.400000 1.600000 -0.400000
v 0.400000 1.600000 0.400000
v -0.200000 1.800000 0.200000
v -0.200000 1.800000 -0.200000
v 0.200000 1.800000 -0.200000
v 0.200000 1.800000 0.200000
v -1.000000 -0.800000 0.800000
v -1.000000 0.800000 0.800000
v 1.000000 0.800000 0.800000
v 1.000000 -0.800000 0.800000
v -0.600000 -0.600000 1.200000
v -0.600000 0.600000 1.200000
v 0.600000 0.600000 1.200000
v 0.600000 -0.600000 1.200000
v -0.800000 -0.800000 1.200000
v -0.800000 0.800000 1.200000
v 0.800000 0.800000 1.200000
v 0.800000 -0.800000 1.200000
v -0.400000 -0.400000 1.400000
v -0.400000 0.400000 1.400000
v 0.400000 0.400000 1.400000
v 0.400000 -0.400000 1.400000
v -0.600000 -0.600000 1.400000
v -0.600000 0.600000 1.400000
v 0.600000 0.600000 1.400000
v 0.600000 -0.600000 1.400000
v -0.200000 -0.200000 1.600000
v -0.200000 0.200000 1.600000
v 0.200000 0.200000 1.600000
v 0.200000 -0.200000 1.600000
v -0.400000 -0.400000 1.600000
v -0.400000 0.400000 1.600000
v 0.400000 0.400000 1.600000
v 0.400000 -0.400000 1.600000
v -0.200000 -0.200000 1.800000
v -0.200000 0.200000 1.800000
v 0.200000 0.200000 1.800000
v 0.200000 -0.200000 1.800000
v 0.800000 0.800000 -1.000000
v 0.800000 -0.800000 -1.000000
v 0.800000 -1.000000 0.800000
v 1.000000 1.000000 1.000000
v 1.200000 0.600000 -0.600000
v 1.200000 -0.600000 -0.600000
v 1.200000 -0.600000 0.600000
v 1.200000 0.600000 0.600000
v 1.200000 0.800000 -0.800000
v 1.200000 -0.800000 -0.800000
v 1.200000 -0.800000 0.800000
v 1.200000 0.800000 0.800000
v 1.400000 0.400000 -0.400000
v 1.400000 -0.400000 -0.400000
v 1.400000 -0.400000 0.400000
v 1.400000 0.400000 0.400000
v 1.400000 0.600000 -0.600000
v 1.400000 -0.600000 -0.600000
v 1.400000 -0.600000 0.600000
v 1.400000 0.600000 0.600000
v 1.600000 0.200000 -0.200000
v 1.600000 -0.200000 -0.200000
v 1.600000 -0.200000 0.200000
v 1.600000 0.200000 0.200000
v 1.600000 0.400000 -0.400000
v 1.600000 -0.400000 -0.400000
v 1.600000 -0.400000 0.400000
v 1.600000 0.400000 0.400000
v 1.800000 0.200000 -0.200000
v 1.800000 -0.200000 -0.200000
v 1.800000 -0.200000 0.200000
v 1.800000 0.200000 0.200000
v -1.000000 0.800000 -0.800000
v -1.000000 -0.800000 -0.800000
v 0.800000 -1.000000 -0.800000
v 1.000000 1.000000 -1.000000
v -0.600000 0.600000 -1.200000
v -0.600000 -0.600000 -1.200000
v 0.600000 -0.600000 -1.200000
v 0.600000 0.600000 -1.200000
v -0.800000 0.800000 -1.200000
v -0.800000 -0.800000 -1.200000
v 0.800000 -0.800000 -1.200000
v 0.800000 0.800000 -1.200000
v -0.400000 0.400000 -1.400000
v -0.400000 -0.400000 -1.400000
v 0.400000 -0.400000 -1.400000
v 0.400000 0.400000 -1.400000
v -0.600000 0.600000 -1.400000
v -0.600000 -0.600000 -1.400000
v 0.600000 -0.600000 -1.400000
v 0.600000 0.600000 -1.400000
v -0.200000 0.200000 -1.600000
v -0.200000 -0.200000 -1.600000
v 0.200000 -0.200000 -1.600000
v 0.200000 0.200000 -1.600000
v -0.400000 0.400000 -1.600000
v -0.400000 -0.400000 -1.600000
v 0.400000 -0.400000 -1.600000
v 0.400000 0.400000 -1.600000
v -0.200000 0.200000 -1.800000
v -0.200000 -0.200000 -1.800000
v 0.200000 -0.200000 -1.800000
v 0.200000 0.200000 -1.800000
v -0.800000 -1.000000 -0.800000
v -0.800000 -1.000000 0.800000
v -1.000000 1.000000 1.000000
v -1.000000 1.000000 -1.000000
v -1.200000 -0.600000 -0.600000
v -1.200000 -0.600000 0.600000
v -1.200000 0.600000 0.600000
v -1.200000 0.600000 -0.600000
v -1.200000 -0.800000 -0.800000
v -1.200000 -0.800000 0.800000
v -1.200000 0.800000 0.800000
v -1.200000 0.800000 -0.800000
v -1.400000 -0.400000 -0.400000
v -1.400000 -0.400000 0.400000
v -1.400000 0.400000 0.400000
v -1.400000 0.400000 -0.400000
v -1.400000 -0.600000 -0.600000
v -1.400000 -0.600000 0.600000
v -1.400000 0.600000 0.600000
v -1.400000 0.600000 -0.600000
v -1.600000 -0.200000 -0.200000
v -1.600000 -0.200000 0.200000
v -1.600000 0.200000 0.200000
v -1.600000 0.200000 -0.200000
v -1.600000 -0.400000 -0.400000
v -1.600000 -0.400000 0.400000
v -1.600000 0.400000 0.400000
v -1.600000 0.400000 -0.400000
v -1.800000 -0.200000 -0.200000
v -1.800000 -0.200000 0.200000
v -1.800000 0.200000 0.200000
v -1.800000 0.200000 -0.200000
v -1.000000 -1.000000 -1.000000
v -1.000000 -1.000000 1.000000
v 1.000000 -1.000000 -1.000000
v 1.000000 -1.000000 1.000000
v -0.600000 -1.200000 -0.600000
v -0.600000 -1.200000 0.600000
v 0.600000 -1.200000 -0.600000
v 0.600000 -1.200000 0.600000
v -0.800000 -1.200000 -0.800000
v -0.800000 -1.200000 0.800000
v 0.800000 -1.200000 -0.800000
v 0.800000 -1.200000 0.800000
v -0.400000 -1.400000 -0.400000
v -0.400000 -1.400000 0.400000
v 0.400000 -1.400000 -0.400000
v 0.400000 -1.400000 0.400000
v -0.600000 -1.400000 -0.600000
v -0.600000 -1.400000 0.600000
v 0.600000 -1.400000 -0.600000
v 0.600000 -1.400000 0.600000
v -0.200000 -1.600000 -0.200000
v -0.200000 -1.600000 0.200000
v 0.200000 -1.600000 -0.200000
v 0.200000 -1.600000 0.200000
v -0.400000 -1.600000 -0.400000
v -0.400000 -1.600000 0.400000
v 0.400000 -1.600000 -0.400000
v 0.400000 -1.600000 0.400000
v -0.200000 -1.800000 -0.200000
v -0.200000 -1.800000 0.200000
v 0.200000 -1.800000 -0.200000
v 0.200000 -1.800000 0.200000
vn -0.0000 -0.0000 -1.0000
vn -0.0000 1.0000 -0.0000
vn 1.0000 -0.0000 -0.0000
vn -0.0000 -0.0000 1.0000
vn -1.0000 -0.0000 -0.0000
vn -0.0000 -1.0000 -0.0000
vt 0.400000 0.975000
vt 0.850000 0.725000
vt 0.400000 0.275000
vt 0.850000 0.525000
vt 0.400000 0.775000
vt 0.650000 0.725000
vt 0.400000 0.525000
vt 0.650000 0.525000
vt 0.600000 0.975000
vt 0.600000 0.275000
vt 0.600000 0.525000
vt 0.600000 0.775000
vt 0.875000 0.750000
vt 0.875000 0.500000
vt 0.625000 0.500000
vt 0.625000 0.750000
vt 0.825000 0.700000
vt 0.825000 0.550000
vt 0.675000 0.550000
vt 0.675000 0.700000
vt 0.850000 0.725000
vt 0.850000 0.525000
vt 0.650000 0.525000
vt 0.650000 0.725000
vt 0.800000 0.675000
vt 0.800000 0.575000
vt 0.700000 0.575000
vt 0.700000 0.675000
vt 0.825000 0.700000
vt 0.825000 0.550000
vt 0.675000 0.550000
vt 0.675000 0.700000
vt 0.775000 0.650000
vt 0.775000 0.600000
vt 0.725000 0.600000
vt 0.725000 0.650000
vt 0.800000 0.675000
vt 0.800000 0.575000
vt 0.700000 0.575000
vt 0.700000 0.675000
vt 0.775000 0.650000
vt 0.775000 0.600000
vt 0.725000 0.600000
vt 0.725000 0.650000
vt 0.400000 0.025000
vt 0.600000 0.025000
vt 0.600000 0.725000
vt 0.400000 0.725000
vt 0.425000 0.950000
vt 0.575000 0.950000
vt 0.575000 0.800000
vt 0.425000 0.800000
vt 0.400000 0.975000
vt 0.600000 0.975000
vt 0.600000 0.775000
vt 0.400000 0.775000
vt 0.450000 0.925000
vt 0.550000 0.925000
vt 0.550000 0.825000
vt 0.450000 0.825000
vt 0.425000 0.950000
vt 0.575000 0.950000
vt 0.575000 0.800000
vt 0.425000 0.800000
vt 0.475000 0.900000
vt 0.525000 0.900000
vt 0.525000 0.850000
vt 0.475000 0.850000
vt 0.450000 0.925000
vt 0.550000 0.925000
vt 0.550000 0.825000
vt 0.450000 0.825000
vt 0.475000 0.900000
vt 0.525000 0.900000
vt 0.525000 0.850000
vt 0.475000 0.850000
vt 0.600000 0.475000
vt 0.400000 0.475000
vt 0.350000 0.725000
vt 0.625000 0.750000
vt 0.575000 0.550000
vt 0.425000 0.550000
vt 0.425000 0.700000
vt 0.575000 0.700000
vt 0.600000 0.525000
vt 0.400000 0.525000
vt 0.400000 0.725000
vt 0.600000 0.725000
vt 0.550000 0.575000
vt 0.450000 0.575000
vt 0.450000 0.675000
vt 0.550000 0.675000
vt 0.575000 0.550000
vt 0.425000 0.550000
vt 0.425000 0.700000
vt 0.575000 0.700000
vt 0.525000 0.600000
vt 0.475000 0.600000
vt 0.475000 0.650000
vt 0.525000 0.650000
vt 0.550000 0.575000
vt 0.450000 0.575000
vt 0.450000 0.675000
vt 0.550000 0.675000
vt 0.525000 0.600000
vt 0.475000 0.600000
vt 0.475000 0.650000
vt 0.525000 0.650000
vt 0.600000 0.225000
vt 0.400000 0.225000
vt 0.350000 0.525000
vt 0.625000 0.500000
vt 0.575000 0.300000
vt 0.425000 0.300000
vt 0.425000 0.450000
vt 0.575000 0.450000
vt 0.600000 0.275000
vt 0.400000 0.275000
vt 0.400000 0.475000
vt 0.600000 0.475000
vt 0.550000 0.325000
vt 0.450000 0.325000
vt 0.450000 0.425000
vt 0.550000 0.425000
vt 0.575000 0.300000
vt 0.425000 0.300000
vt 0.425000 0.450000
vt 0.575000 0.450000
vt 0.525000 0.350000
vt 0.475000 0.350000
vt 0.475000 0.400000
vt 0.525000 0.400000
vt 0.550000 0.325000
vt 0.450000 0.325000
vt 0.450000 0.425000
vt 0.550000 0.425000
vt 0.525000 0.350000
vt 0.475000 0.350000
vt 0.475000 0.400000
vt 0.525000 0.400000
vt 0.150000 0.525000
vt 0.150000 0.725000
vt 0.875000 0.750000
vt 0.625000 1.000000
vt 0.625000 0.000000
vt 0.875000 0.500000
vt 0.625000 0.250000
vt 0.425000 0.200000
vt 0.425000 0.050000
vt 0.575000 0.050000
vt 0.575000 0.200000
vt 0.400000 0.225000
vt 0.400000 0.025000
vt 0.600000 0.025000
vt 0.600000 0.225000
vt 0.450000 0.175000
vt 0.450000 0.075000
vt 0.550000 0.075000
vt 0.550000 0.175000
vt 0.425000 0.200000
vt 0.425000 0.050000
vt 0.575000 0.050000
vt 0.575000 0.200000
vt 0.475000 0.150000
vt 0.475000 0.100000
vt 0.525000 0.100000
vt 0.525000 0.150000
vt 0.450000 0.175000
vt 0.450000 0.075000
vt 0.550000 0.075000
vt 0.550000 0.175000
vt 0.475000 0.150000
vt 0.475000 0.100000
vt 0.525000 0.100000
vt 0.525000 0.150000
vt 0.375000 0.250000
vt 0.125000 0.500000
vt 0.375000 1.000000
vt 0.375000 0.000000
vt 0.125000 0.750000
vt 0.375000 0.500000
vt 0.375000 0.750000
vt 0.175000 0.550000
vt 0.175000 0.700000
vt 0.325000 0.550000
vt 0.325000 0.700000
vt 0.150000 0.525000
vt 0.150000 0.725000
vt 0.350000 0.525000
vt 0.350000 0.725000
vt 0.200000 0.575000
vt 0.200000 0.675000
vt 0.300000 0.575000
vt 0.300000 0.675000
vt 0.175000 0.550000
vt 0.175000 0.700000
vt 0.325000 0.550000
vt 0.325000 0.700000
vt 0.225000 0.600000
vt 0.225000 0.650000
vt 0.275000 0.600000
vt 0.275000 0.650000
vt 0.200000 0.575000
vt 0.200000 0.675000
vt 0.300000 0.575000
vt 0.300000 0.675000
vt 0.225000 0.600000
vt 0.225000 0.650000
vt 0.275000 0.600000
vt 0.275000 0.650000
s 0
f 109/109/1 110/110/1 149/152/1 152/155/1
f 10/10/2 77/77/2 120/120/2 117/117/2
f 11/11/2 47/47/2 88/88/2 85/85/2
f 12/12/2 9/9/2 54/54/2 55/55/2
f 111/111/3 79/79/3 184/190/3 183/189/3
f 6/6/3 8/8/3 23/23/3 24/24/3
f 13/13/2 14/14/2 144/146/2 143/143/2
f 14/14/2 15/15/2 112/112/2 144/146/2
f 15/15/2 16/16/2 80/80/2 112/112/2
f 16/16/2 13/13/2 143/143/2 80/80/2
f 2/2/2 4/4/2 14/14/2 13/13/2
f 4/4/2 8/8/2 15/15/2 14/14/2
f 8/8/2 6/6/2 16/16/2 15/15/2
f 6/6/2 2/2/2 13/13/2 16/16/2
f 17/17/4 20/20/4 32/32/4 29/29/4
f 4/4/5 2/2/5 21/21/5 22/22/5
f 2/2/4 6/6/4 24/24/4 21/21/4
f 8/8/1 4/4/1 22/22/1 23/23/1
f 17/17/2 18/18/2 22/22/2 21/21/2
f 18/18/2 19/19/2 23/23/2 22/22/2
f 19/19/2 20/20/2 24/24/2 23/23/2
f 20/20/2 17/17/2 21/21/2 24/24/2
f 27/27/1 26/26/1 38/38/1 39/39/1
f 19/19/1 18/18/1 30/30/1 31/31/1
f 20/20/3 19/19/3 31/31/3 32/32/3
f 18/18/5 17/17/5 29/29/5 30/30/5
f 25/25/2 26/26/2 30/30/2 29/29/2
f 26/26/2 27/27/2 31/31/2 30/30/2
f 27/27/2 28/28/2 32/32/2 31/31/2
f 28/28/2 25/25/2 29/29/2 32/32/2
f 33/33/4 36/36/4 44/44/4 41/41/4
f 28/28/3 27/27/3 39/39/3 40/40/3
f 26/26/5 25/25/5 37/37/5 38/38/5
f 25/25/4 28/28/4 40/40/4 37/37/4
f 33/33/2 34/34/2 38/38/2 37/37/2
f 34/34/2 35/35/2 39/39/2 38/38/2
f 35/35/2 36/36/2 40/40/2 39/39/2
f 36/36/2 33/33/2 37/37/2 40/40/2
f 43/43/2 42/42/2 41/41/2 44/44/2
f 35/35/1 34/34/1 42/42/1 43/43/1
f 36/36/3 35/35/3 43/43/3 44/44/3
f 34/34/5 33/33/5 41/41/5 42/42/5
f 1/1/4 9/9/4 143/144/4 174/178/4
f 12/12/4 5/5/4 176/182/4 80/80/4
f 5/5/4 1/1/4 174/178/4 176/182/4
f 9/9/4 12/12/4 80/80/4 143/144/4
f 51/51/2 50/50/2 62/62/2 63/63/2
f 5/5/3 12/12/3 55/55/3 56/56/3
f 1/1/6 5/5/6 56/56/6 53/53/6
f 9/9/5 1/1/5 53/53/5 54/54/5
f 49/49/4 50/50/4 54/54/4 53/53/4
f 51/51/4 52/52/4 56/56/4 55/55/4
f 52/52/4 49/49/4 53/53/4 56/56/4
f 50/50/4 51/51/4 55/55/4 54/54/4
f 57/57/6 60/60/6 72/72/6 69/69/6
f 52/52/3 51/51/3 63/63/3 64/64/3
f 49/49/6 52/52/6 64/64/6 61/61/6
f 50/50/5 49/49/5 61/61/5 62/62/5
f 57/57/4 58/58/4 62/62/4 61/61/4
f 59/59/4 60/60/4 64/64/4 63/63/4
f 60/60/4 57/57/4 61/61/4 64/64/4
f 58/58/4 59/59/4 63/63/4 62/62/4
f 66/66/5 65/65/5 73/73/5 74/74/5
f 58/58/5 57/57/5 69/69/5 70/70/5
f 59/59/2 58/58/2 70/70/2 71/71/2
f 60/60/3 59/59/3 71/71/3 72/72/3
f 65/65/4 66/66/4 70/70/4 69/69/4
f 67/67/4 68/68/4 72/72/4 71/71/4
f 68/68/4 65/65/4 69/69/4 72/72/4
f 66/66/4 67/67/4 71/71/4 70/70/4
f 76/76/4 75/75/4 74/74/4 73/73/4
f 67/67/2 66/66/2 74/74/2 75/75/2
f 68/68/3 67/67/3 75/75/3 76/76/3
f 65/65/6 68/68/6 76/76/6 73/73/6
f 11/11/3 7/7/3 175/181/3 112/112/3
f 7/7/3 48/48/3 176/182/3 175/181/3
f 47/47/3 11/11/3 112/112/3 80/80/3
f 48/48/3 47/47/3 80/80/3 176/182/3
f 81/81/2 84/84/2 96/96/2 93/93/2
f 7/7/1 11/11/1 85/85/1 86/86/1
f 47/47/4 48/48/4 87/87/4 88/88/4
f 48/48/6 7/7/6 86/86/6 87/87/6
f 81/81/3 82/82/3 86/86/3 85/85/3
f 82/82/3 83/83/3 87/87/3 86/86/3
f 84/84/3 81/81/3 85/85/3 88/88/3
f 83/83/3 84/84/3 88/88/3 87/87/3
f 89/89/2 92/92/2 104/104/2 101/101/2
f 82/82/1 81/81/1 93/93/1 94/94/1
f 84/84/4 83/83/4 95/95/4 96/96/4
f 83/83/6 82/82/6 94/94/6 95/95/6
f 89/89/3 90/90/3 94/94/3 93/93/3
f 90/90/3 91/91/3 95/95/3 94/94/3
f 92/92/3 89/89/3 93/93/3 96/96/3
f 91/91/3 92/92/3 96/96/3 95/95/3
f 97/97/2 100/100/2 108/108/2 105/105/2
f 90/90/1 89/89/1 101/101/1 102/102/1
f 92/92/4 91/91/4 103/103/4 104/104/4
f 91/91/6 90/90/6 102/102/6 103/103/6
f 97/97/3 98/98/3 102/102/3 101/101/3
f 98/98/3 99/99/3 103/103/3 102/102/3
f 100/100/3 97/97/3 101/101/3 104/104/3
f 99/99/3 100/100/3 104/104/3 103/103/3
f 106/106/3 105/105/3 108/108/3 107/107/3
f 98/98/1 97/97/1 105/105/1 106/106/1
f 100/100/4 99/99/4 107/107/4 108/108/4
f 99/99/6 98/98/6 106/106/6 107/107/6
f 10/10/1 3/3/1 173/176/1 144/147/1
f 3/3/1 78/78/1 175/181/1 173/176/1
f 77/77/1 10/10/1 144/147/1 112/112/1
f 78/78/1 77/77/1 112/112/1 175/181/1
f 115/115/6 114/114/6 126/126/6 127/127/6
f 3/3/5 10/10/5 117/117/5 118/118/5
f 77/77/3 78/78/3 119/119/3 120/120/3
f 78/78/6 3/3/6 118/118/6 119/119/6
f 113/113/1 114/114/1 118/118/1 117/117/1
f 114/114/1 115/115/1 119/119/1 118/118/1
f 116/116/1 113/113/1 117/117/1 120/120/1
f 115/115/1 116/116/1 120/120/1 119/119/1
f 121/121/2 124/124/2 136/136/2 133/133/2
f 113/113/2 116/116/2 128/128/2 125/125/2
f 114/114/5 113/113/5 125/125/5 126/126/5
f 116/116/3 115/115/3 127/127/3 128/128/3
f 121/121/1 122/122/1 126/126/1 125/125/1
f 122/122/1 123/123/1 127/127/1 126/126/1
f 124/124/1 121/121/1 125/125/1 128/128/1
f 123/123/1 124/124/1 128/128/1 127/127/1
f 132/132/3 131/131/3 139/139/3 140/140/3
f 122/122/5 121/121/5 133/133/5 134/134/5
f 124/124/3 123/123/3 135/135/3 136/136/3
f 123/123/6 122/122/6 134/134/6 135/135/6
f 129/129/1 130/130/1 134/134/1 133/133/1
f 130/130/1 131/131/1 135/135/1 134/134/1
f 132/132/1 129/129/1 133/133/1 136/136/1
f 131/131/1 132/132/1 136/136/1 135/135/1
f 138/138/1 137/137/1 140/140/1 139/139/1
f 131/131/6 130/130/6 138/138/6 139/139/6
f 129/129/2 132/132/2 140/140/2 137/137/2
f 130/130/5 129/129/5 137/137/5 138/138/5
f 45/45/5 110/110/5 173/176/5 174/179/5
f 46/46/5 45/45/5 174/179/5 143/145/5
f 109/109/5 46/46/5 143/145/5 144/147/5
f 110/110/5 109/109/5 144/147/5 173/176/5
f 147/150/2 148/151/2 160/163/2 159/162/2
f 45/45/4 46/46/4 151/154/4 150/153/4
f 46/46/2 109/109/2 152/155/2 151/154/2
f 110/110/6 45/45/6 150/153/6 149/152/6
f 146/149/5 145/148/5 149/152/5 150/153/5
f 147/150/5 146/149/5 150/153/5 151/154/5
f 148/151/5 147/150/5 151/154/5 152/155/5
f 145/148/5 148/151/5 152/155/5 149/152/5
f 155/158/2 156/159/2 168/171/2 167/170/2
f 145/148/6 146/149/6 158/161/6 157/160/6
f 148/151/1 145/148/1 157/160/1 160/163/1
f 146/149/4 147/150/4 159/162/4 158/161/4
f 154/157/5 153/156/5 157/160/5 158/161/5
f 155/158/5 154/157/5 158/161/5 159/162/5
f 156/159/5 155/158/5 159/162/5 160/163/5
f 153/156/5 156/159/5 160/163/5 157/160/5
f 163/166/2 164/167/2 172/175/2 171/174/2
f 153/156/6 154/157/6 166/169/6 165/168/6
f 156/159/1 153/156/1 165/168/1 168/171/1
f 154/157/4 155/158/4 167/170/4 166/169/4
f 162/165/5 161/164/5 165/168/5 166/169/5
f 163/166/5 162/165/5 166/169/5 167/170/5
f 164/167/5 163/166/5 167/170/5 168/171/5
f 161/164/5 164/167/5 168/171/5 165/168/5
f 170/173/5 171/174/5 172/175/5 169/172/5
f 161/164/6 162/165/6 170/173/6 169/172/6
f 164/167/1 161/164/1 169/172/1 172/175/1
f 162/165/4 163/166/4 171/174/4 170/173/4
f 141/141/6 142/142/6 174/180/6 173/177/6
f 111/111/6 141/141/6 173/177/6 175/181/6
f 79/79/6 111/111/6 175/181/6 176/182/6
f 142/142/6 79/79/6 176/182/6 174/180/6
f 179/185/3 180/186/3 192/198/3 191/197/3
f 142/142/5 141/141/5 181/187/5 182/188/5
f 79/79/4 142/142/4 182/188/4 184/190/4
f 141/141/1 111/111/1 183/189/1 181/187/1
f 177/183/6 178/184/6 182/188/6 181/187/6
f 179/185/6 177/183/6 181/187/6 183/189/6
f 180/186/6 179/185/6 183/189/6 184/190/6
f 178/184/6 180/186/6 184/190/6 182/188/6
f 185/191/1 187/193/1 199/205/1 197/203/1
f 178/184/5 177/183/5 189/195/5 190/196/5
f 180/186/4 178/184/4 190/196/4 192/198/4
f 177/183/1 179/185/1 191/197/1 189/195/1
f 185/191/6 186/192/6 190/196/6 189/195/6
f 187/193/6 185/191/6 189/195/6 191/197/6
f 188/194/6 187/193/6 191/197/6 192/198/6
f 186/192/6 188/194/6 192/198/6 190/196/6
f 196/202/4 194/200/4 202/208/4 204/210/4
f 187/193/3 188/194/3 200/206/3 199/205/3
f 186/192/5 185/191/5 197/203/5 198/204/5
f 188/194/4 186/192/4 198/204/4 200/206/4
f 193/199/6 194/200/6 198/204/6 197/203/6
f 195/201/6 193/199/6 197/203/6 199/205/6
f 196/202/6 195/201/6 199/205/6 200/206/6
f 194/200/6 196/202/6 200/206/6 198/204/6
f 201/207/6 203/209/6 204/210/6 202/208/6
f 193/199/1 195/201/1 203/209/1 201/207/1
f 195/201/3 196/202/3 204/210/3 203/209/3
f 194/200/5 193/199/5 201/207/5 202/208/5
